<!-- Generator: Adobe Illustrator 16.0.0, SVG Export Plug-In . SVG Version: 6.00 Build 0)  -->
<svg xmlns:rdf="http://www.w3.org/1999/02/22-rdf-syntax-ns#" xmlns:cc="http://creativecommons.org/ns#" xmlns:dc="http://purl.org/dc/elements/1.1/" id="Layer_1" xmlns="http://www.w3.org/2000/svg" enable-background="new 0 0 841.89 595.28" xml:space="preserve" height="223.69" viewBox="0 0 209.145 223.69399" width="209.14" version="1.1" y="0px" x="0px"><metadata id="metadata34"><rdf:RDF><cc:Work rdf:about=""><dc:format>image/svg+xml</dc:format><dc:type rdf:resource="http://purl.org/dc/dcmitype/StillImage"/><dc:title/></cc:Work></rdf:RDF></metadata><g id="g3" transform="translate(-316.545,-176.33401)"><g id="g5"/><g id="g16"><g id="g18"><g id="g20"><path id="path22" fill="#6e6f72" d="m466.37,201.33c-0.057,0.581-0.008,1.161-0.093,1.742l-3.327,21.346c24.334,14.387,40.731,40.788,40.731,71.042,0,45.525-37.036,82.574-82.554,82.574-45.532,0-82.561-37.049-82.561-82.574,0-11.385,2.329-22.239,6.514-32.123l-15.831-17.771c-8.093,14.861-12.702,31.846-12.702,49.893,0,57.652,46.913,104.57,104.58,104.57,57.66,0,104.56-46.92,104.56-104.57,0.001-41.433-24.291-77.215-59.322-94.129z"/><path id="path24" fill="#6e6f72" d="m417.02,213.1,2.704-17.29c0.255-1.72,0.758-3.356,1.381-4.928-22.472,0.007-43.237,7.215-60.308,19.308l14.727,16.489c11.999-7.965,26.231-12.807,41.496-13.579z"/><g id="g26"><path id="path28" fill="#9b9d13" d="m456.66,185.15c-1.183-4.418-4.843-7.944-9.664-8.708-0.56-0.078-1.098-0.106-1.636-0.106-3.54,0-6.698,1.621-8.964,4.149-1.451,1.678-2.626,3.575-2.98,5.912l-2.471,15.831-13.927,88.479-51.231-57.405-14.825-16.575-3.505-3.915c-2.351-2.655-5.622-4.021-8.921-4.021-2.811,0-5.629,0.984-7.895,3.023-4.921,4.361-5.359,11.902-0.991,16.83l5.324,5.947,15.321,17.183,65.731,73.674c2.279,2.578,5.536,3.98,8.899,3.98,1.104,0,2.23-0.178,3.342-0.453,4.426-1.318,7.711-5.07,8.419-9.608l17.502-111.47,2.775-17.835c0.264-1.706,0.122-3.356-0.303-4.914z"/></g></g></g></g></g></svg>
