<?xml version="1.0" standalone="yes"?><!-- Generator: Adobe Illustrator 16.0.0, SVG Export Plug-In . SVG Version: 6.00 Build 0)  --><svg xmlns:rdf="http://www.w3.org/1999/02/22-rdf-syntax-ns#" xmlns:cc="http://creativecommons.org/ns#" xmlns:dc="http://purl.org/dc/elements/1.1/" xmlns="http://www.w3.org/2000/svg" id="Layer_1" enable-background="new 0 0 841.89 595.28" xml:space="preserve" height="223.69" viewBox="0 0 209.145 223.69399" width="209.14" version="1.1" y="0px" x="0px" style="zoom: 1;"><metadata id="metadata34"><rdf:RDF><cc:Work rdf:about=""><dc:format>image/svg+xml</dc:format><dc:type rdf:resource="http://purl.org/dc/dcmitype/StillImage"></dc:type><dc:title></dc:title></cc:Work></rdf:RDF></metadata><g id="g3" transform="translate(-316.545,-176.33401)"><g id="g5"></g><g id="g16"><g id="g18"><g id="g20"><path d="M466.37,201.33 c-0.057,0.581 -0.008,1.161 -0.093,1.742 l-3.327,21.346 c24.334,14.387 40.731,40.788 40.731,71.042 c0,45.525 -37.036,82.574 -82.554,82.574 c-45.532,0 -82.561,-37.049 -82.561,-82.574 c0,-11.385 2.329,-22.239 6.514,-32.123 l-15.831,-17.771 c-8.093,14.861 -12.702,31.846 -12.702,49.893 c0,57.652 46.913,104.57 104.58,104.57 c57.66,0 104.56,-46.92 104.56,-104.57 c0.001,-41.433 -24.291,-77.215 -59.322,-94.129  z " id="path22" fill="#DEDEDE"></path><path d="M417.02,213.1 l2.704,-17.29 c0.255,-1.72 0.758,-3.356 1.381,-4.928 c-22.472,0.007 -43.237,7.215 -60.308,19.308 l14.727,16.489 c11.999,-7.965 26.231,-12.807 41.496,-13.579  z " id="path24" fill="#DEDEDE"></path><g id="g26"><path d="M456.66,185.15 c-1.183,-4.418 -4.843,-7.944 -9.664,-8.708 c-0.56,-0.078 -1.098,-0.106 -1.636,-0.106 c-3.54,0 -6.698,1.621 -8.964,4.149 c-1.451,1.678 -2.626,3.575 -2.98,5.912 l-2.471,15.831 l-13.927,88.479 l-51.231,-57.405 l-14.825,-16.575 l-3.505,-3.915 c-2.351,-2.655 -5.622,-4.021 -8.921,-4.021 c-2.811,0 -5.629,0.984 -7.895,3.023 c-4.921,4.361 -5.359,11.902 -0.991,16.83 l5.324,5.947 l15.321,17.183 l65.731,73.674 c2.279,2.578 5.536,3.98 8.899,3.98 c1.104,0 2.23,-0.178 3.342,-0.453 c4.426,-1.318 7.711,-5.07 8.419,-9.608 l17.502,-111.47 l2.775,-17.835 c0.264,-1.706 0.122,-3.356 -0.303,-4.914 z" id="path28" fill="#9b9d13"></path></g></g></g></g></g></svg>