<?xml version="1.0" encoding="UTF-8" standalone="no"?>
<svg
   xmlns:dc="http://purl.org/dc/elements/1.1/"
   xmlns:cc="http://creativecommons.org/ns#"
   xmlns:rdf="http://www.w3.org/1999/02/22-rdf-syntax-ns#"
   xmlns:svg="http://www.w3.org/2000/svg"
   xmlns="http://www.w3.org/2000/svg"
   xmlns:sodipodi="http://sodipodi.sourceforge.net/DTD/sodipodi-0.dtd"
   xmlns:inkscape="http://www.inkscape.org/namespaces/inkscape"
   width="61"
   height="94"
   viewBox="0 0 61 94"
   version="1.1"
   id="svg29"
   sodipodi:docname="logo2.svg"
   inkscape:version="0.92.3 (2405546, 2018-03-11)">
  <metadata
     id="metadata33">
    <rdf:RDF>
      <cc:Work
         rdf:about="">
        <dc:format>image/svg+xml</dc:format>
        <dc:type
           rdf:resource="http://purl.org/dc/dcmitype/StillImage" />
        <dc:title></dc:title>
      </cc:Work>
    </rdf:RDF>
  </metadata>
  <sodipodi:namedview
     pagecolor="#ffffff"
     bordercolor="#666666"
     borderopacity="1"
     objecttolerance="10"
     gridtolerance="10"
     guidetolerance="10"
     inkscape:pageopacity="0"
     inkscape:pageshadow="2"
     inkscape:window-width="1853"
     inkscape:window-height="1025"
     id="namedview31"
     showgrid="false"
     inkscape:zoom="5.6568543"
     inkscape:cx="29.58234"
     inkscape:cy="42.092869"
     inkscape:window-x="67"
     inkscape:window-y="27"
     inkscape:window-maximized="1"
     inkscape:current-layer="svg29" />
  <!-- Generator: Sketch 51.3 (57544) - http://www.bohemiancoding.com/sketch -->
  <desc
     id="desc2">Created with Sketch.</desc>
  <defs
     id="defs4" />
  <g
     id="g938"
     transform="translate(4.6566166)">
    <g
       id="Group"
       transform="translate(21.468225,75.05246)"
       style="fill:#02adba;fill-opacity:1;fill-rule:evenodd;stroke:none;stroke-width:1">
      <path
         style="fill:#02adba;fill-opacity:1"
         d="m 2.8937203,1.377828 h 0.00886 V 16.18948 h -0.00886 c -0.080215,0.775019 -0.6954121,1.377828 -1.4424314,1.377828 -0.74701929,0 -1.36221635,-0.602809 -1.4424314,-1.377828 H 0 V 1.377828 H 0.0088575 C 0.08907255,0.60280831 0.70426961,0 1.4512889,0 2.1983082,0 2.8135053,0.60280831 2.8937203,1.377828 Z"
         id="Combined-Shape"
         inkscape:connector-curvature="0" />
    </g>
    <g
       id="Group-Copy"
       transform="translate(40.284746,75.05246)"
       style="fill:#02adba;fill-opacity:1;fill-rule:evenodd;stroke:none;stroke-width:1">
      <path
         style="fill:#02adba;fill-opacity:1"
         d="m 2.8937203,1.377828 h 0.00886 V 16.18948 h -0.00886 c -0.080215,0.775019 -0.6954121,1.377828 -1.4424314,1.377828 -0.74701929,0 -1.36221635,-0.602809 -1.4424314,-1.377828 H 0 V 1.377828 H 0.0088575 C 0.08907255,0.60280831 0.70426961,0 1.4512889,0 2.1983082,0 2.8135053,0.60280831 2.8937203,1.377828 Z"
         id="path8"
         inkscape:connector-curvature="0" />
    </g>
    <g
       id="Group-2"
       transform="translate(26.045022,75.05246)"
       style="fill:#02adba;fill-opacity:1;fill-rule:evenodd;stroke:none;stroke-width:1">
      <path
         style="fill:#02adba;fill-opacity:1"
         sodipodi:nodetypes="cccsscccsscccsc"
         d="M 4.7335014,16.043249 0.01556995,2.0709177 v 0 C -0.03604093,1.9151618 -0.08984375,1.7196494 -0.08984375,1.5461504 -0.08984375,0.69007771 0.68116079,0 1.5214152,0 2.3524826,0 2.7388538,0.67107889 3.0425868,1.5220354 L 6.255723,11.044343 9.4667171,1.5292951 C 9.7627803,0.71794799 10.154547,0 10.987999,0 c 0.840254,0 1.603446,0.68226521 1.603446,1.5383379 0,0.1793218 -0.04867,0.3879772 -0.103645,0.5481862 v 0 L 7.776097,16.026251 c -0.6976248,1.816338 -0.6840821,1.541057 -1.5213901,1.541057 -0.831732,0 -0.9926068,0.05035 -1.5212055,-1.524059 z"
         id="path11"
         inkscape:connector-curvature="0" />
    </g>
    <path
       sodipodi:nodetypes="ccccsscccsscccccscscccssscc"
       inkscape:connector-curvature="0"
       id="path14"
       d="m 12.013315,76.606127 v 4.050014 l 4.717498,-5.019565 v 0 c 0.404985,-0.305017 0.852764,-0.412505 1.290558,-0.412505 0.899311,0 1.590893,0.796979 1.590893,1.653051 0,0.589329 -0.373586,0.895853 -0.854196,1.364015 l -5.796302,6.120383 5.715392,5.649676 c 0.532765,0.486219 0.935106,0.782903 0.935106,1.402972 0,0.856073 -0.729035,1.550057 -1.628346,1.550057 -0.420934,0 -0.861077,0.0072 -1.216312,-0.275429 v 0 l -4.754291,-4.690453 v 3.249235 h -0.0031 c 0.0021,0.03199 0.0031,0.06425 0.0031,0.09674 0,0.856072 -0.729035,1.550056 -1.628346,1.550056 -0.8993109,-10e-7 -1.6283459,-0.693985 -1.6283459,-1.550057 0,-0.03249 10e-4,-0.06475 0.0031,-0.09674 h -0.0031 v -14.64145 -0.0036 c 0,-0.856083 0.729035,-1.550067 1.6283459,-1.550067 0.899311,0 1.628346,0.693984 1.628346,1.550057 0,0.0012 -1e-6,0.0024 -4e-6,0.0036 z"
       style="fill:#02adba;fill-opacity:1;fill-rule:evenodd;stroke:none;stroke-width:1" />
  </g>
  <g
     style="fill:#02adba;fill-opacity:1;fill-rule:nonzero;stroke:none;stroke-width:1"
     id="Group-5-Copy"
     transform="translate(0.30033447)">
    <path
       inkscape:connector-curvature="0"
       id="Page-1-Copy-3"
       d="m 28.864505,0.71910556 c 0.913861,-0.49697651 2.013643,-0.49697651 2.927503,0 L 58.602992,15.299478 c 1.00074,0.544224 1.624856,1.599801 1.624856,2.748147 V 52.95707 c 0,1.148497 -0.624278,2.204188 -1.625223,2.748347 L 31.791641,70.28107 c -0.913667,0.49671 -2.013102,0.49671 -2.926768,0 L 2.053889,55.705417 C 1.052944,55.161258 0.42866553,54.105567 0.42866553,52.95707 V 18.047625 c 0,-1.148346 0.62411557,-2.203923 1.62485607,-2.748147 z M 30.328257,3.4672523 3.5172731,18.047625 V 52.95707 L 30.328257,67.532724 57.13924,52.95707 V 18.047625 Z"
       style="fill:#02adba;fill-opacity:1" />
    <path
       inkscape:connector-curvature="0"
       transform="matrix(-1,0,0,1,38.607594,0)"
       id="Page-1-Copy-2"
       d="m 6.6881981,8.5296646 c 0,-1.1837877 1.2534136,-1.9364737 2.2824613,-1.3706383 L 31.113251,19.334421 c 0.496869,0.273211 0.806146,0.799054 0.806146,1.370639 v 29.035897 c 0,0.571661 -0.309358,1.097561 -0.806331,1.37074 L 8.970475,63.283151 C 7.9414326,63.848801 6.6881981,63.096106 6.6881981,61.912412 Z M 9.7768057,11.155344 V 59.287138 L 28.830789,48.813446 V 21.632428 Z"
       style="fill:#02adba;fill-opacity:1" />
    <path
       inkscape:connector-curvature="0"
       transform="rotate(4,36.513012,12.39682)"
       id="Path-85"
       d="m 29.442604,10.590184 12.454251,6.520214 c 0.879716,0.424975 1.970417,0.118743 2.436149,-0.683987 0.465733,-0.802729 0.130132,-1.797981 -0.749584,-2.222955 L 31.12917,7.6832415 C 30.249453,7.2582668 29.158752,7.564498 28.69302,8.367228 c -0.465732,0.8027299 -0.130132,1.797981 0.749584,2.222956 z"
       style="fill:#02adba;fill-opacity:1" />
  </g>
  <path
     style="fill:#02adba;fill-opacity:1;fill-rule:nonzero;stroke:none;stroke-width:1"
     inkscape:connector-curvature="0"
     id="Path-87"
     d="m 7.8821311,47.17753 c -0.7181691,0.486659 -0.8975584,1.451387 -0.4006772,2.15478 0.4968812,0.703394 1.4818741,0.879093 2.2000432,0.392434 L 31.518752,34.926994 c 0.939679,-0.636761 0.900745,-2.009481 -0.07358,-2.594168 L 9.6079198,19.228381 c -0.744646,-0.446859 -1.718161,-0.217874 -2.1744066,0.511452 -0.4562456,0.729326 -0.2224509,1.682812 0.5221952,2.129671 L 27.723653,33.732165 Z" />
</svg>
