<svg xmlns="http://www.w3.org/2000/svg" viewBox="0 0 600.28 128.03"><defs><style>.cls-1{fill:#ae9b72;}.cls-2,.cls-3{fill:#007a3e;}.cls-2{fill-rule:evenodd;}</style></defs><title>Asset 1</title><g id="Layer_2" data-name="Layer 2"><g id="Layer_1-2" data-name="Layer 1"><path class="cls-1" d="M-84.56,20.42c0-.05,0-13.13,0-13.13l3.09,2.16.52-.28L-85.22.47l-5.6,2.93c0,1.05-.05,17.06-.05,21,0,2.91,0,4.41-1,5.71v1.44c4.26-2.23,7.34-6.37,7.36-11.09" transform="translate(176.08 28.15)"/><path class="cls-1" d="M-92.83,39.92l-12.48-4.07,3-2.27-.1-.58-9.6,1.38,1,6.23L-91,47.14c2.76.89,4.19,1.38,5.1,2.75l1.37.45c-.8-4.75-3.78-9-8.27-10.42" transform="translate(176.08 28.15)"/><path class="cls-1" d="M-76.82,53.81s-7.73,10.62-7.73,10.62l-1.23-3.56-.59-.08L-88,70.34l6.25.92c.61-.85,10.06-13.78,12.35-16.94,1.7-2.35,2.6-3.55,4.18-4l.86-1.16c-4.77-.71-9.69.83-12.46,4.65" transform="translate(176.08 28.15)"/><path class="cls-1" d="M-58.69,42.88S-51,53.51-51,53.51l-3.78.07-.26.53,8.58,4.51L-43.61,53c-.62-.85-10-13.82-12.29-17-1.71-2.36-2.58-3.58-2.51-5.23l-.84-1.17c-2.15,4.31-2.2,9.47.56,13.29" transform="translate(176.08 28.15)"/><path class="cls-1" d="M-63.46,22.26l12.5-4-1.1,3.6.42.41,7-6.75-4.51-4.42-20,6.42c-2.76.9-4.19,1.34-5.74.76l-1.38.45c3.43,3.36,8.32,5,12.81,3.57" transform="translate(176.08 28.15)"/><path class="cls-2" d="M-76.27,87.9a54.61,54.61,0,0,1-17,2.7A54.73,54.73,0,0,1-148,35.87,54.73,54.73,0,0,1-93.23-18.87a54.61,54.61,0,0,1,17,2.7v-1a63.66,63.66,0,0,0-35.8-11,64,64,0,0,0-64,64,64,64,0,0,0,64,64,63.66,63.66,0,0,0,35.8-11Z" transform="translate(176.08 28.15)"/><path class="cls-3" d="M.26,24.3,3,23.64V3.75L.26,3.12V.48h12V3.12l-2.68.63V23.64l2.68.66V27H.26Z" transform="translate(176.08 28.15)"/><path class="cls-3" d="M15.31,26.1l-.37-6.35H18.8l.95,3.45a7.6,7.6,0,0,0,3.6.74c2.57,0,4.07-1.32,4.07-3.38s-1.58-3-4.33-4.19l-1.91-.77c-3.67-1.43-5.94-3.34-5.94-7.82S18.13,0,24.82,0a20.19,20.19,0,0,1,7.05,1l.36,5.8H28.42l-.7-2.75a6.87,6.87,0,0,0-3.12-.7c-2.32,0-3.71,1-3.71,3,0,1.83,1.14,2.79,3.82,3.78l1.87.7c4.29,1.61,6.9,3.12,6.9,8.07S30,27.39,23.42,27.39A23,23,0,0,1,15.31,26.1Z" transform="translate(176.08 28.15)"/><path class="cls-3" d="M35.65,24.3l2.71-.66V3.75l-2.71-.63V.48H48V3.12L45,3.71V23.64h6.53l1.51-5.72h3.56l-.48,9H35.65Z" transform="translate(176.08 28.15)"/><path class="cls-3" d="M58.74,24.3l2.13-.66L68.76.48h6.09l7.68,23.16,2.2.66V27H72.83V24.3l2.68-.66-1.35-4.48h-8l-1.36,4.48,2.64.66V27H58.74Zm14.57-7.93L72,11.93c-.81-2.68-1.58-6.68-1.58-6.68h-.18s-.92,4-1.76,6.68l-1.4,4.44Z" transform="translate(176.08 28.15)"/><path class="cls-3" d="M87.19,24.3l2.72-.66V3.75l-2.72-.63V.48H98.28L101,9.69a100.87,100.87,0,0,1,2,10.21h.15s1.07-6.32,2.17-10.21L108,.48h11.82V3.12l-2.86.63V23.64l2.86.66V27H108.3V24.3l2.2-.62V13.07c0-3.63.4-9.58.4-9.58h-.18s-1.47,5.87-2.5,9.4L104.37,26H99.89L96,13.07c-1.06-3.52-2.31-9.58-2.31-9.58h-.18s.36,6,.36,9.62V23.68L96,24.3V27H87.19Z" transform="translate(176.08 28.15)"/><path class="cls-3" d="M123,26.1l-.37-6.35h3.86l1,3.45a7.6,7.6,0,0,0,3.6.74c2.57,0,4.08-1.32,4.08-3.38s-1.58-3-4.34-4.19l-1.9-.77c-3.68-1.43-6-3.34-6-7.82S125.81,0,132.49,0a20.11,20.11,0,0,1,7,1l.37,5.8h-3.82l-.7-2.75a6.87,6.87,0,0,0-3.12-.7c-2.31,0-3.71,1-3.71,3,0,1.83,1.14,2.79,3.82,3.78l1.87.7c4.3,1.61,6.9,3.12,6.9,8.07s-3.45,8.45-10.06,8.45A23,23,0,0,1,123,26.1Z" transform="translate(176.08 28.15)"/><path class="cls-3" d="M143.28,24.3l2.72-.66V3.75l-2.72-.63V.48h11.79V3.12l-2.46.59V14.17l8.63-10.46-2.5-.59V.48h9.47V3.12l-2.31.66-6.32,7.34,7.27,12.56,2,.62V27h-7.63l-6.32-11.13-2.31,1.77v6.13l2.46.58V27H143.28Z" transform="translate(176.08 28.15)"/><path class="cls-3" d="M171.18,24.3l2.13-.66L181.21.48h6.09L195,23.64l2.21.66V27h-11.9V24.3l2.68-.66-1.36-4.48h-8l-1.36,4.48,2.64.66V27h-8.74Zm14.58-7.93-1.32-4.44c-.81-2.68-1.58-6.68-1.58-6.68h-.19s-.91,4-1.76,6.68l-1.39,4.44Z" transform="translate(176.08 28.15)"/><path class="cls-3" d="M210.13,23.68,222.91,4V3.78h-7.12L214.36,8.3h-3.68l.37-7.82h19.28v3.3L217.51,23.5v.14h7.82l1.47-5h3.64l-.37,8.3H210.13Z" transform="translate(176.08 28.15)"/><path class="cls-3" d="M232.71,24.3l2.13-.66L242.73.48h6.1l7.67,23.16,2.2.66V27H246.81V24.3l2.68-.66-1.36-4.48h-8l-1.35,4.48,2.64.66V27h-8.74Zm14.58-7.93L246,11.93c-.8-2.68-1.57-6.68-1.57-6.68h-.19s-.92,4-1.76,6.68L241,16.37Z" transform="translate(176.08 28.15)"/><path class="cls-3" d="M261,26V22.58a11.22,11.22,0,0,0,3.34.51c2.16,0,3.49-1,3.49-3.78V3.75l-2.72-.63V.48h12V3.12l-2.6.63V19.53c0,5-2.68,7.71-8,7.71A11.18,11.18,0,0,1,261,26Z" transform="translate(176.08 28.15)"/><path class="cls-3" d="M279.59,24.3l2.72-.66V3.75l-2.72-.63V.48h21L301,7.75h-3.38l-1.14-4h-7.67V11.9H292l.7-2.83h2.75v8.74h-2.75l-.7-2.87h-3.19v8.74h7.93l1.5-4.88h3.42L301.21,27H279.59Z" transform="translate(176.08 28.15)"/><path class="cls-3" d="M304.11,24.3l2.76-.66V3.75l-2.72-.63V.48h12C324.42.48,329,4.33,329,13.25c0,9.33-4.88,13.7-12.66,13.7H304.11Zm11.9-.73c4,0,6.06-1.73,6.06-9.8,0-9-2.39-9.88-6.58-9.88h-2V23.57Z" transform="translate(176.08 28.15)"/><path class="cls-3" d="M331,24.3l2.76-.66V3.75L331,3.12V.48h9.55l5.94,10.13A60.66,60.66,0,0,1,350.08,18h.18V3.82l-2.68-.7V.48h9.07V3.12l-2.39.63V27H348.9l-7.52-13A60.78,60.78,0,0,1,338,6.5h-.15V23.64l2.65.66V27H331Z" transform="translate(176.08 28.15)"/><path class="cls-3" d="M359.25,24.3l2.72-.66V3.75l-2.72-.63V.48h12V3.12l-2.68.63V23.64l2.68.66V27h-12Z" transform="translate(176.08 28.15)"/><path class="cls-3" d="M373.17,14C373.17,3.56,379.77,0,386.49,0a24.41,24.41,0,0,1,7.86,1.13l.26,7.09h-3.86l-1.14-3.89a8.59,8.59,0,0,0-3.37-.7c-4.19,0-6.06,2.68-6.06,9.62,0,8.15,1.8,10.46,6.31,10.46a7.76,7.76,0,0,0,3.45-.8l1.11-4h3.78L394.57,26a21.76,21.76,0,0,1-8.74,1.43C378.49,27.39,373.17,23.61,373.17,14Z" transform="translate(176.08 28.15)"/><path class="cls-3" d="M397.62,24.3l2.13-.66L407.64.48h6.09l7.68,23.16,2.2.66V27h-11.9V24.3l2.68-.66L413,19.16h-8l-1.36,4.48,2.64.66V27h-8.73Zm14.57-7.93-1.32-4.44c-.81-2.68-1.58-6.68-1.58-6.68h-.18s-.92,4-1.77,6.68L406,16.37Z" transform="translate(176.08 28.15)"/><path class="cls-3" d="M3,62.92V47.31l-3-.66v-2H11.2v2l-3,.63v15c0,4.26,1.8,6.35,5.84,6.35s6-2.09,6-6.35v-15l-3-.62v-2h8.77v2l-2.64.66V62.55c0,5.47-3.27,9.1-9.91,9.1C6.24,71.65,3,68.2,3,62.92Z" transform="translate(176.08 28.15)"/><path class="cls-3" d="M35.13,69.16l3.09-.7V47.31l-3-.66v-2h11.6c6.13,0,9.22,2.09,9.22,6.53,0,2.83-1.51,5.33-6,6v.23c5.32.66,7.27,2.75,7.27,6.6,0,4.15-3.09,7.09-9.66,7.09H35.13ZM46.26,56.38c2.57,0,4.4-1,4.4-4.3,0-3.81-1.61-4.84-4.51-4.84H43.39v9.14Zm.47,12.19c3.35,0,5-1.43,5-5s-1.68-5-4.95-5H43.39v9.91Z" transform="translate(176.08 28.15)"/><path class="cls-3" d="M59.14,58c0-9.55,6.1-13.73,12.23-13.73,6.79,0,12.08,4.59,12.08,13.55,0,9.54-6.1,13.8-12.23,13.8C64.39,71.58,59.14,67,59.14,58Zm18.8.26c0-7.82-2.2-11.27-6.72-11.27s-6.61,4-6.61,10.6c0,7.38,1.8,11.28,6.72,11.28C75.74,68.83,77.94,64.93,77.94,58.22Z" transform="translate(176.08 28.15)"/><path class="cls-3" d="M85.87,70.29,85.54,64h2.9l1,3.89a8.29,8.29,0,0,0,4.3,1c3,0,4.55-1.83,4.55-4.15,0-2.6-1.65-3.52-4.44-4.7L91.27,59c-3.31-1.36-5.36-3.34-5.36-7.31,0-4.22,2.6-7.45,8.88-7.45a19.41,19.41,0,0,1,6.68,1l.3,5.84H98.94l-.77-3.3a7.11,7.11,0,0,0-3.64-.85c-2.38,0-4.15,1.18-4.15,3.53,0,2.16,1.18,3.34,3.79,4.36l2.57,1c3.81,1.51,6.35,3.05,6.35,7.53s-2.87,8.26-9.55,8.26A20.76,20.76,0,0,1,85.87,70.29Z" transform="translate(176.08 28.15)"/><path class="cls-3" d="M104.26,69.16l3.09-.74V47.31l-3.09-.66v-2h8.89l7.56,12.41a68,68,0,0,1,3.6,7.3h.18v-17l-3-.73v-2h8.92v2l-2.71.7V71.14h-4l-9.47-15.71a62.4,62.4,0,0,1-3.49-7.27h-.15V68.42l3.09.74v2h-9.33Z" transform="translate(176.08 28.15)"/><path class="cls-3" d="M132.09,69.16l2.94-.7V47.31l-2.94-.66v-2h11.09v2l-2.9.66V68.46l2.9.7v2H132.09Z" transform="translate(176.08 28.15)"/><path class="cls-3" d="M152.9,69.16l2.94-.7V47.31l-2.94-.66v-2H164v2l-2.9.66V68.46l2.9.7v2H152.9Z" transform="translate(176.08 28.15)"/><path class="cls-3" d="M173.87,69.16l3-.7V47.31l-3-.66v-2h11.19v2l-2.93.66v9.07h10.09V47.31l-2.93-.66v-2h11.16v2l-3,.66V68.46l3,.7v2H189.29v-2l2.93-.66V58.8H182.13v9.7l2.93.66v2H173.87Z" transform="translate(176.08 28.15)"/><path class="cls-3" d="M202.32,69.16l3.08-.7V47.31l-3.05-.66v-2h20.38l.37,6.94h-2.72l-1.32-4.41h-8.52v9.14h4l.88-3.34h2.2v9.18h-2.2l-.88-3.45h-4v9.88h9l1.62-5.36h2.71l-.44,7.89H202.32Z" transform="translate(176.08 28.15)"/><path class="cls-3" d="M225.45,69.16l3.12-.7V47.39l-3-.74v-2h12c6.57,0,9.51,2.75,9.51,7.41,0,3.75-2.72,5.51-5.36,6.47v.14l5.69,9.84,2,.63v2h-6.31l-6.35-11.53h-2.94V68.5l2.68.66v2h-11Zm11.49-12c3.52,0,4.77-1.72,4.77-5s-1.32-4.81-4.59-4.81h-3.34v9.8Z" transform="translate(176.08 28.15)"/><path class="cls-3" d="M249.6,58.18c0-10.46,6.46-14,13.15-14a24,24,0,0,1,7.59,1.06l.26,7h-2.83l-1.24-4.44a11.46,11.46,0,0,0-4.11-.85c-5,0-7.31,3.78-7.31,10.47,0,8,2.2,11.34,7.6,11.34a8.7,8.7,0,0,0,4-.92L268,63.14h2.79l-.25,7.08a21.43,21.43,0,0,1-8.45,1.36C254.78,71.58,249.6,67.83,249.6,58.18Z" transform="translate(176.08 28.15)"/><path class="cls-3" d="M272.84,69.16l3.08-.7V47.31l-3-.66v-2h20.37l.37,6.94H290.9l-1.32-4.41h-8.52v9.14h4L286,53h2.21v9.18H286l-.88-3.45h-4v9.88h9l1.62-5.36h2.71l-.44,7.89H272.84Z" transform="translate(176.08 28.15)"/><path class="cls-3" d="M296,58.18c0-10.46,6.53-14,13.54-14a24.75,24.75,0,0,1,7.75,1.06l.29,6.79H314.8l-1.25-4.22a9.62,9.62,0,0,0-4.47-.88c-5.07,0-7.57,4-7.57,10.47,0,7.56,2.17,11.41,7.64,11.41a11.28,11.28,0,0,0,3.49-.55V61.52l-3.05-.66v-2H320.2v2l-2.5.66v8.81a25.16,25.16,0,0,1-8.29,1.32C301.07,71.65,296,67.83,296,58.18Z" transform="translate(176.08 28.15)"/><path class="cls-3" d="M322.11,58c0-9.55,6.09-13.73,12.22-13.73,6.8,0,12.08,4.59,12.08,13.55,0,9.54-6.09,13.8-12.22,13.8C327.36,71.58,322.11,67,322.11,58Zm18.8.26c0-7.82-2.21-11.27-6.72-11.27s-6.61,4-6.61,10.6c0,7.38,1.8,11.28,6.72,11.28C338.7,68.83,340.91,64.93,340.91,58.22Z" transform="translate(176.08 28.15)"/><path class="cls-3" d="M348.17,47.31,346,46.65v-2h10.61v2l-3,.66,3.16,10c1.21,3.9,2.53,10,2.53,10h.18s1.66-6.24,2.83-10l3.16-10-2.9-.66v-2h8.41v2l-2.21.66-8,23.83h-4.55Z" transform="translate(176.08 28.15)"/><path class="cls-3" d="M372.44,69.16l2.94-.7V47.31l-2.94-.66v-2h11.09v2l-2.9.66V68.46l2.9.7v2H372.44Z" transform="translate(176.08 28.15)"/><path class="cls-3" d="M385.29,69.16l3.08-.74V47.31l-3.08-.66v-2h8.88l7.57,12.41a67.06,67.06,0,0,1,3.59,7.3h.19v-17l-3-.73v-2h8.92v2l-2.72.7V71.14h-4l-9.47-15.71a62.4,62.4,0,0,1-3.49-7.27h-.15V68.42l3.08.74v2h-9.32Z" transform="translate(176.08 28.15)"/><path class="cls-3" d="M413.12,69.16l2.93-.7V47.31l-2.93-.66v-2H424.2v2l-2.9.66V68.46l2.9.7v2H413.12Z" transform="translate(176.08 28.15)"/></g></g></svg>