<?xml version="1.0" standalone="yes"?><!-- Generator: Adobe Illustrator 16.0.0, SVG Export Plug-In . SVG Version: 6.00 Build 0)  --><svg xmlns:rdf="http://www.w3.org/1999/02/22-rdf-syntax-ns#" xmlns:cc="http://creativecommons.org/ns#" xmlns:dc="http://purl.org/dc/elements/1.1/" xmlns="http://www.w3.org/2000/svg" id="Layer_1" enable-background="new 0 0 841.89 595.28" xml:space="preserve" height="119.23" viewBox="0 0 315.273 119.231" width="315.27" version="1.1" y="0px" x="0px" style="zoom: 1;"><metadata id="metadata45"><rdf:RDF><cc:Work rdf:about=""><dc:format>image/svg+xml</dc:format><dc:type rdf:resource="http://purl.org/dc/dcmitype/StillImage"></dc:type><dc:title></dc:title></cc:Work></rdf:RDF></metadata><g id="g3" transform="translate(-263.309,-238.02501)"><g id="g5"><g id="g7"><path d="M294.98,264.38 c6.427,-4.29 14.01,-6.935 22.198,-7.343 l0.132,-0.867 l1.306,-8.413 c0.143,-0.9 0.474,-2.624 0.334,-2.624 c-11.881,0.089 -22.846,3.965 -31.881,10.39 l7.588,8.494 l0.323,0.363  z " id="path9" fill="#fff"></path><path d="M361.14,324.22 l-3.971,-0.033 c-0.213,0.331 -0.89,1.32 -1.11,1.651 c-7.955,11.814 -21.416,19.622 -36.692,19.622 c-24.406,0 -44.259,-19.859 -44.259,-44.262 c0,-6.096 1.306,-11.871 3.555,-17.153 l-1.636,-1.839 l-6.818,-7.635 c-4.332,7.938 -6.905,16.966 -6.905,26.627 c0,30.906 25.148,56.06 56.063,56.06 c22.7,0 42.251,-13.592 51.058,-33.038 h-9.285  z " id="path11" fill="#fff"></path><path id="path13" fill="#9b9d13" d="m338.11,242.7c-0.632-2.346-2.573-4.218-5.123-4.615-0.295-0.039-0.583-0.06-0.872-0.06-1.866,0-3.554,0.87-4.749,2.212-0.768,0.874-1.391,1.884-1.584,3.115l-1.306,8.398-7.373,46.895-27.159-30.42-7.848-8.794-1.857-2.072c-1.248-1.407-2.984-2.125-4.731-2.125-1.483,0-2.98,0.524-4.18,1.595-2.612,2.319-2.844,6.317-0.528,8.917l2.819,3.154,8.121,9.105,34.83,39.044c1.212,1.363,2.938,2.114,4.715,2.114,0.588,0,1.188-0.09,1.778-0.255,2.344-0.686,4.083-2.673,4.462-5.091l9.267-59.058,1.472-9.462c0.142-0.901,0.067-1.775-0.154-2.597z"></path></g></g><g id="g15"><path d="M352.65,275.29 c3.123,0 11.683,0.906 18.793,2.876 l0.083,39.122 h-8.052 l-0.96,-2.877 c-3.3,2.216 -7.289,3.369 -10.248,3.369 c-8.547,0 -10.981,-6.741 -11.758,-14.134 c-0.276,-2.63 -0.463,-5.179 -0.535,-9.778 c0.033,-12.986 3.556,-18.578 12.677,-18.578 m-2.004,20.054 c0.179,4.024 0.45,8.965 1.157,12.574 c0.616,2.713 1.647,3.121 3.723,2.553 c2.074,-0.576 3.936,-1.646 5.888,-2.639 l0.149,-25.144 c-2.336,-0.331 -4.822,-0.492 -6.536,-0.408 c-4.174,0.161 -4.522,9.364 -4.381,13.064  z " id="path17" fill="#fff"></path><path d="M378.5,317.04 l0.245,-55.558 h10.604 l-0.188,27.946 h1.33 l5.933,-14.14 h11.09 l-7.96,18.164 l12.995,23.587 h-11.34 l-10.771,-19.557 h-1.252 l-0.164,19.557 h-10.522  z " id="path19" fill="#fff"></path><path d="M419.36,307.59 c-0.169,-1.641 -0.188,-3.372 -0.146,-24.077 h-7.972 c0.06,-2.552 0.042,-5.101 0.107,-7.563 h7.975 c0.074,-3.202 0.134,-6.57 0.119,-9.778 h10.44 l0.041,9.778 h8.22 c-0.148,2.463 -0.132,5.012 -0.191,7.563 h-8.138 l0.006,23.504 c0.34,3.201 1.413,3.287 3.798,3.287 c0.984,0 2.376,-0.086 5.038,-0.577 c-0.084,2.385 0.042,4.361 0.12,6.656 c0.029,0.245 -0.036,0.415 -0.022,0.582 c-2.811,0.649 -4.844,0.816 -6.239,0.816 c-9.618,0.001 -12.473,-3.692 -13.156,-10.191  z " id="path21" fill="#fff"></path><path d="M444.2,317.04 l0.203,-41.016 h10.852 l-0.209,41.016 h-10.846  z " id="path23" fill="#fff"></path><path d="M459.26,325.16 c3.715,-0.652 4.258,-2.546 4.27,-4.764 l0.251,-44.45 h10.768 l-0.214,43.213 c-0.102,10.031 -4.323,12.086 -10.237,12.086 c-0.498,0 -1.318,0 -4.821,-0.492 l-0.017,-5.593  z " id="path25" fill="#fff"></path><path d="M493.46,275.29 c3.123,0 11.684,0.906 18.794,2.876 l0.087,39.122 h-8.059 l-0.957,-2.877 c-3.3,2.216 -7.291,3.369 -10.245,3.369 c-8.554,0 -10.98,-6.741 -11.762,-14.134 c-0.274,-2.63 -0.463,-5.179 -0.534,-9.778 c0.033,-12.986 3.552,-18.578 12.676,-18.578 m-2,20.054 c0.176,4.024 0.447,8.965 1.151,12.574 c0.616,2.713 1.651,3.121 3.723,2.553 c2.079,-0.576 3.938,-1.646 5.892,-2.639 l0.146,-25.144 c-2.33,-0.331 -4.817,-0.492 -6.534,-0.408 c-4.172,0.161 -4.521,9.364 -4.378,13.064  z " id="path27" fill="#fff"></path><path d="M522.28,310.96 c2.654,0 3.056,0.424 3.029,3.015 c0.026,2.474 -0.322,3.13 -3.091,3.13 c-2.656,0 -2.954,-0.596 -2.984,-3.13 c0.027,-2.54 0.328,-3.015 3.046,-3.015  z " id="path29" fill="#fff"></path><path d="M542.1,317.52 c-2.711,0 -6.813,-0.292 -9.568,-0.655 l0.165,-41.054 h4.129 l-0.057,12.333 c2.271,-0.829 6.084,-1.067 7.736,-1.067 c5.956,0 8.111,3.661 8.1,13.103 c-0.099,11.968 -1.124,17.34 -10.505,17.34 m1.624,-26.61 c-2.004,0 -4.988,0.241 -6.92,0.948 l-0.155,21.533 c1.488,0.116 3.611,0.116 4.91,0.116 h0.412 c6.135,0 6.188,-3.952 6.23,-13.161 c0.073,-6.071 -0.226,-9.436 -4.477,-9.436  z " id="path31" fill="#fff"></path><path d="M566.2,286.84 c2.302,0 9.006,0.352 12.378,1.595 l-0.006,28.554 h-3.244 l-0.604,-1.834 c-3.354,1.774 -6.616,2.188 -8.977,2.188 c-4.188,0 -6.553,-2.889 -7.254,-9.558 c-0.182,-1.718 -0.282,-3.776 -0.221,-7.673 c0.248,-9.435 1.971,-13.272 7.928,-13.272 m-3.362,13.455 c-0.036,3.007 0.041,5.488 0.243,7.375 c0.448,4.245 1.458,6.013 3.519,6.013 c1.773,0 4.471,-0.706 7.608,-2.292 c-0.007,-6.795 0.077,-13.338 0.077,-20.064 c-2.293,-0.474 -5.492,-0.59 -7.438,-0.59 h-0.354 c-3.654,0 -3.654,5.074 -3.664,9.493 l0.009,0.065  z " id="path33" fill="#fff"></path><path id="path35" fill="#9b9d13" d="m450.05,259.76c5.262,0,5.888,0.492,5.882,5.917,0.015,4.848-0.597,6.084-5.938,6.084-5.504,0-5.88-1.237-5.9-6.084,0.044-5.094,0.45-5.917,5.956-5.917z"></path><path id="path37" fill="#9b9d13" d="m469.43,259.59c5.259,0,5.969,0.492,5.969,5.92,0.013,4.848-0.683,6.079-6.024,6.079-5.507,0-5.8-1.231-5.814-6.079,0.038-5.097,0.446-5.92,5.869-5.92z"></path></g><path d="M362.559998,265.73999 c-0.417,-0.5 -0.841,-0.992 -1.271,-1.479 c-1.073,-1.21 -2.189,-2.37 -3.363,-3.482 c-0.411,-0.388 -0.829,-0.769 -1.252,-1.145 c-1.194,-1.064 -2.424,-2.075 -3.706,-3.035 c-0.55,-0.414 -1.11,-0.814 -1.677,-1.208 c-1.172,-0.814 -2.366,-1.583 -3.6,-2.31 c-0.368,-0.215 -1.076,-0.596 -1.076,-0.596 c-1.001,-0.561 -1.969,-1.175 -3.006,-1.676 c-0.022,0.286 0.003,0.572 -0.042,0.85 l-1.472,9.462 l-0.317,2.06 c1.817,1.076 3.537,2.295 5.19,3.598 c0.821,0.692 1.58,1.455 2.369,2.182 c1.015,-0.199 2.106,-0.31 3.309,-0.31 c2.349,0 7.778,0.51 13.35,1.606 c-0.675,-1.002 -2.977,-3.959 -3.436,-4.517  z " id="path39" fill="#fff"></path></g></svg>