<svg id="Layer_1" data-name="Layer 1" xmlns="http://www.w3.org/2000/svg" viewBox="0 0 459.14 97.01"><defs><style>.cls-1,.cls-2{fill:#fff;}.cls-2{fill-rule:evenodd;}</style></defs><title>SVG IZ LOGOTIP</title><path class="cls-1" d="M70,36.81s0-10,0-10l2.36,1.64.4-.21-3.27-6.59-4.28,2.22c0,.79,0,12.93,0,15.88,0,2.2,0,3.34-.79,4.32V45.2A9.77,9.77,0,0,0,70,36.81"/><path class="cls-1" d="M63.67,51.58,54.13,48.5l2.3-1.72-.08-.44-7.34,1,.81,4.73,15.23,4.94c2.11.68,3.2,1.05,3.9,2.09l1,.34a9.81,9.81,0,0,0-6.33-7.9"/><path class="cls-1" d="M75.92,62.11s-5.91,8-5.91,8l-.94-2.69-.45-.07-1.25,7.24,4.77.7c.47-.65,7.7-10.44,9.45-12.84,1.3-1.78,2-2.69,3.2-3l.66-.88a9.86,9.86,0,0,0-9.53,3.53"/><path class="cls-1" d="M89.78,53.82s5.91,8.06,5.91,8.06l-2.88,0-.2.4,6.56,3.42,2.15-4.28L91.92,48.6c-1.31-1.78-2-2.71-1.92-4l-.65-.89a9.73,9.73,0,0,0,.43,10.07"/><path class="cls-1" d="M86.14,38.2l9.56-3.06-.84,2.73.32.31,5.32-5.12-3.45-3.35c-.77.24-12.43,3.95-15.26,4.87-2.12.67-3.21,1-4.4.57l-1,.34a9.92,9.92,0,0,0,9.8,2.71"/><path class="cls-2" d="M76.34,87.94A41.9,41.9,0,0,1,21.5,48.51,41.9,41.9,0,0,1,76.34,9.08V8.31A49,49,0,0,0,49,0C21.92,0,0,21.72,0,48.5S21.92,97,49,97a49,49,0,0,0,27.38-8.3Z"/><path class="cls-1" d="M134.87,39.75l2.08-.5V24.17l-2.08-.47v-2h9.18v2l-2,.47V39.25l2,.5v2h-9.18Z"/><path class="cls-1" d="M146.39,41.11l-.29-4.81h3l.73,2.61a5.92,5.92,0,0,0,2.76.56c2,0,3.11-1,3.11-2.56s-1.21-2.31-3.31-3.17l-1.46-.59c-2.81-1.08-4.55-2.53-4.55-5.92s2.22-5.9,7.33-5.9a15.62,15.62,0,0,1,5.39.78l.28,4.4h-2.92l-.53-2.09a5.34,5.34,0,0,0-2.39-.53c-1.77,0-2.84.75-2.84,2.28s.87,2.12,2.92,2.87l1.44.53c3.28,1.22,5.28,2.36,5.28,6.12s-2.64,6.39-7.7,6.39A17.8,17.8,0,0,1,146.39,41.11Z"/><path class="cls-1" d="M161.94,39.75l2.08-.5V24.17l-2.08-.47v-2h9.41v2l-2.25.44V39.25h5l1.15-4.34H178l-.37,6.84H161.94Z"/><path class="cls-1" d="M179.6,39.75l1.63-.5,6-17.56h4.66l5.87,17.56,1.68.5v2h-9.09v-2l2.05-.5-1-3.4h-6.1l-1,3.4,2,.5v2H179.6Zm11.15-6-1-3.37c-.62-2-1.21-5.06-1.21-5.06h-.14s-.7,3-1.35,5.06L186,33.74Z"/><path class="cls-1" d="M201.36,39.75l2.08-.5V24.17l-2.08-.47v-2h8.48l2.06,7a76.11,76.11,0,0,1,1.54,7.73h.11s.82-4.79,1.66-7.73l2-7h9v2l-2.19.47V39.25l2.19.5v2h-8.79v-2l1.69-.48v-8c0-2.75.3-7.26.3-7.26h-.14s-1.12,4.45-1.91,7.13L214.51,41h-3.43l-3-9.8c-.82-2.67-1.77-7.26-1.77-7.26h-.14s.28,4.57.28,7.29v8l1.68.48v2h-6.77Z"/><path class="cls-1" d="M228.74,41.11l-.28-4.81h2.95l.73,2.61a5.87,5.87,0,0,0,2.75.56c2,0,3.12-1,3.12-2.56s-1.21-2.31-3.31-3.17l-1.47-.59c-2.8-1.08-4.54-2.53-4.54-5.92s2.21-5.9,7.32-5.9a15.69,15.69,0,0,1,5.4.78l.28,4.4h-2.92l-.54-2.09a5.26,5.26,0,0,0-2.38-.53c-1.77,0-2.84.75-2.84,2.28s.87,2.12,2.92,2.87l1.43.53c3.29,1.22,5.28,2.36,5.28,6.12S240,42.08,235,42.08A17.86,17.86,0,0,1,228.74,41.11Z"/><path class="cls-1" d="M244.27,39.75l2.08-.5V24.17l-2.08-.47v-2h9v2l-1.88.44v7.93l6.6-7.93-1.91-.44v-2h7.25v2l-1.77.5-4.83,5.56,5.56,9.51,1.54.48v2H258l-4.83-8.43-1.77,1.34V39.3l1.88.45v2h-9Z"/><path class="cls-1" d="M265.61,39.75l1.63-.5,6-17.56h4.66l5.87,17.56,1.68.5v2h-9.1v-2l2.05-.5-1-3.4h-6.09l-1,3.4,2,.5v2h-6.68Zm11.15-6-1-3.37c-.62-2-1.21-5.06-1.21-5.06h-.14s-.7,3-1.35,5.06L272,33.74Z"/><path class="cls-1" d="M295.4,39.27l9.77-14.93V24.2h-5.44l-1.1,3.42h-2.81l.28-5.93h14.75V24.2l-9.8,14.94v.11h6l1.12-3.79h2.78l-.28,6.29H295.4Z"/><path class="cls-1" d="M312.67,39.75l1.63-.5,6-17.56H325l5.87,17.56,1.68.5v2h-9.1v-2l2.05-.5-1-3.4h-6.1l-1,3.4,2,.5v2h-6.69Zm11.15-6-1-3.37c-.62-2-1.21-5.06-1.21-5.06h-.14s-.7,3-1.35,5.06l-1.06,3.37Z"/><path class="cls-1" d="M334.29,41.05V38.44a8.67,8.67,0,0,0,2.56.39c1.65,0,2.67-.75,2.67-2.87V24.17l-2.08-.47v-2h9.18v2l-2,.47v12c0,3.78-2.05,5.84-6.1,5.84A8.58,8.58,0,0,1,334.29,41.05Z"/><path class="cls-1" d="M348.53,39.75l2.08-.5V24.17l-2.08-.47v-2h16.09l.25,5.51h-2.58l-.87-3.06h-5.87v6.2H358l.54-2.14h2.1v6.62h-2.1L358,32.65h-2.44v6.62h6.06l1.15-3.7h2.62l-.31,6.18H348.53Z"/><path class="cls-1" d="M367.29,39.75l2.1-.5V24.17l-2.08-.47v-2h9.19c6.31,0,9.82,2.92,9.82,9.68,0,7.07-3.73,10.38-9.68,10.38h-9.35Zm9.09-.56c3.06,0,4.64-1.31,4.64-7.43,0-6.81-1.83-7.48-5-7.48h-1.52V39.19Z"/><path class="cls-1" d="M387.87,39.75l2.1-.5V24.17l-2.1-.47v-2h7.3l4.55,7.68A45.85,45.85,0,0,1,402.44,35h.14V24.22l-2.05-.52v-2h6.94v2l-1.83.47V41.75h-4.1l-5.75-9.82a46.2,46.2,0,0,1-2.62-5.67h-.11v13l2,.5v2h-7.21Z"/><path class="cls-1" d="M409.46,39.75l2.08-.5V24.17l-2.08-.47v-2h9.18v2l-2.05.47V39.25l2.05.5v2h-9.18Z"/><path class="cls-1" d="M420.1,31.9c0-7.87,5.06-10.54,10.2-10.54a18.69,18.69,0,0,1,6,.86l.2,5.37h-2.95l-.87-2.95a6.61,6.61,0,0,0-2.58-.53c-3.2,0-4.63,2-4.63,7.29,0,6.18,1.37,7.93,4.83,7.93a6,6,0,0,0,2.64-.61l.84-3.06h2.89l-.2,5.34a16.7,16.7,0,0,1-6.68,1.08C424.17,42.08,420.1,39.22,420.1,31.9Z"/><path class="cls-1" d="M438.8,39.75l1.63-.5,6-17.56h4.66L457,39.25l1.68.5v2h-9.09v-2l2.05-.5-1-3.4h-6.1l-1,3.4,2,.5v2H438.8Zm11.15-6-1-3.37c-.62-2-1.21-5.06-1.21-5.06h-.14s-.7,3-1.35,5.06l-1.06,3.37Z"/><path class="cls-1" d="M137,69V57.18l-2.27-.5v-1.5h8.56v1.5l-2.27.47V68.56c0,3.23,1.37,4.81,4.46,4.81S150,71.79,150,68.56V57.18l-2.3-.47V55.18h6.71v1.5l-2,.5V68.73c0,4.14-2.5,6.9-7.58,6.9C139.45,75.63,137,73,137,69Z"/><path class="cls-1" d="M161.55,73.73l2.36-.52v-16l-2.33-.5v-1.5h8.87c4.69,0,7.05,1.58,7.05,5,0,2.14-1.15,4-4.55,4.56v.17c4.07.5,5.56,2.09,5.56,5,0,3.14-2.36,5.37-7.39,5.37h-9.57Zm8.51-9.68c2,0,3.37-.75,3.37-3.25,0-2.89-1.24-3.67-3.46-3.67h-2.1v6.92Zm.36,9.24c2.56,0,3.85-1.09,3.85-3.76s-1.29-3.75-3.79-3.75h-2.61v7.51Z"/><path class="cls-1" d="M179.91,65.25c0-7.23,4.66-10.4,9.35-10.4,5.2,0,9.24,3.47,9.24,10.26,0,7.23-4.66,10.46-9.35,10.46C183.93,75.57,179.91,72.06,179.91,65.25Zm14.38.19c0-5.92-1.68-8.54-5.14-8.54s-5.05,3-5.05,8c0,5.6,1.37,8.54,5.14,8.54C192.61,73.48,194.29,70.54,194.29,65.44Z"/><path class="cls-1" d="M200.36,74.6l-.26-4.79h2.22l.76,3a6.47,6.47,0,0,0,3.28.75c2.34,0,3.49-1.39,3.49-3.14,0-2-1.27-2.67-3.4-3.56l-2-.81c-2.52-1-4.1-2.53-4.1-5.54,0-3.19,2-5.64,6.8-5.64a14.87,14.87,0,0,1,5.11.75l.22,4.42h-2.16l-.59-2.5a5.46,5.46,0,0,0-2.78-.64c-1.82,0-3.17.89-3.17,2.67s.9,2.53,2.89,3.31l2,.78c2.92,1.14,4.85,2.31,4.85,5.7s-2.19,6.26-7.3,6.26A16.24,16.24,0,0,1,200.36,74.6Z"/><path class="cls-1" d="M214.42,73.73l2.36-.55v-16l-2.36-.5v-1.5h6.8l5.78,9.4a51.08,51.08,0,0,1,2.76,5.54h.14V57.27l-2.33-.56V55.18h6.82v1.5l-2.08.53v18h-3.09L222,63.33a47.24,47.24,0,0,1-2.67-5.51h-.11V73.18l2.36.55v1.51h-7.14Z"/><path class="cls-1" d="M235.71,73.73l2.24-.52v-16l-2.24-.5v-1.5h8.48v1.5l-2.22.5v16l2.22.52v1.51h-8.48Z"/><path class="cls-1" d="M251.63,73.73l2.25-.52v-16l-2.25-.5v-1.5h8.48v1.5l-2.22.5v16l2.22.52v1.51h-8.48Z"/><path class="cls-1" d="M267.66,73.73l2.33-.52v-16l-2.33-.5v-1.5h8.57v1.5l-2.25.5v6.87h7.72V57.18l-2.24-.5v-1.5H288v1.5l-2.3.5v16l2.33.52v1.51h-8.56V73.73l2.24-.5V65.89H274v7.34l2.25.5v1.51h-8.57Z"/><path class="cls-1" d="M289.42,73.73l2.36-.52v-16l-2.33-.5v-1.5H305l.28,5.26h-2.08l-1-3.34h-6.52V64h3.09l.68-2.54h1.68v7h-1.68l-.68-2.62h-3.09v7.49h6.86l1.23-4.06h2.08l-.34,6H289.42Z"/><path class="cls-1" d="M307.11,73.73l2.39-.52v-16l-2.33-.56v-1.5h9.21c5,0,7.27,2.09,7.27,5.62,0,2.84-2.07,4.17-4.1,4.89v.12l4.36,7.45,1.51.47v1.51h-4.83l-4.85-8.74h-2.25v6.73l2.05.5v1.51h-8.43Zm8.79-9.09c2.7,0,3.65-1.31,3.65-3.79s-1-3.64-3.51-3.64h-2.55v7.43Z"/><path class="cls-1" d="M325.59,65.42c0-7.93,4.94-10.57,10.05-10.57a18.62,18.62,0,0,1,5.82.8l.19,5.29h-2.16l-.95-3.37a8.88,8.88,0,0,0-3.15-.64c-3.85,0-5.59,2.87-5.59,7.93,0,6,1.69,8.6,5.82,8.6a6.61,6.61,0,0,0,3.08-.7l1-3.59h2.13l-.19,5.37a16.6,16.6,0,0,1-6.46,1C329.55,75.57,325.59,72.73,325.59,65.42Z"/><path class="cls-1" d="M343.37,73.73l2.35-.52v-16l-2.33-.5v-1.5H359l.28,5.26h-2.08l-1-3.34h-6.51V64h3.08l.68-2.54h1.68v7h-1.68l-.68-2.62h-3.08v7.49h6.85l1.23-4.06h2.08l-.34,6H343.37Z"/><path class="cls-1" d="M361.08,65.42c0-7.93,5-10.57,10.37-10.57a19.05,19.05,0,0,1,5.92.8l.23,5.15h-2.14l-.95-3.2a7.43,7.43,0,0,0-3.43-.67c-3.87,0-5.78,3.06-5.78,7.93,0,5.73,1.65,8.65,5.84,8.65a8.47,8.47,0,0,0,2.66-.42V68l-2.33-.5V66h8.12v1.5l-1.91.5v6.67a19.28,19.28,0,0,1-6.35,1C365,75.63,361.08,72.73,361.08,65.42Z"/><path class="cls-1" d="M381.05,65.25c0-7.23,4.66-10.4,9.35-10.4,5.19,0,9.24,3.47,9.24,10.26,0,7.23-4.66,10.46-9.35,10.46C385.06,75.57,381.05,72.06,381.05,65.25Zm14.38.19c0-5.92-1.69-8.54-5.14-8.54s-5.06,3-5.06,8c0,5.6,1.38,8.54,5.14,8.54C393.74,73.48,395.43,70.54,395.43,65.44Z"/><path class="cls-1" d="M401,57.18l-1.63-.5v-1.5h8.11v1.5l-2.27.5,2.41,7.6c.93,3,1.94,7.56,1.94,7.56h.14s1.26-4.73,2.16-7.56l2.42-7.6-2.22-.5v-1.5h6.43v1.5l-1.68.5-6.15,18.06h-3.49Z"/><path class="cls-1" d="M419.55,73.73l2.24-.52v-16l-2.24-.5v-1.5H428v1.5l-2.22.5v16l2.22.52v1.51h-8.48Z"/><path class="cls-1" d="M429.37,73.73l2.36-.55v-16l-2.36-.5v-1.5h6.8l5.78,9.4a51.08,51.08,0,0,1,2.76,5.54h.14V57.27l-2.33-.56V55.18h6.82v1.5l-2.08.53v18h-3.09l-7.24-11.91a47.24,47.24,0,0,1-2.67-5.51h-.11V73.18l2.36.55v1.51h-7.14Z"/><path class="cls-1" d="M450.66,73.73l2.25-.52v-16l-2.25-.5v-1.5h8.48v1.5l-2.22.5v16l2.22.52v1.51h-8.48Z"/></svg>