<?xml version="1.0" encoding="utf-8"?>
<!-- Generator: Adobe Illustrator 24.0.1, SVG Export Plug-In . SVG Version: 6.00 Build 0)  -->
<svg version="1.1" id="Layer_1" xmlns="http://www.w3.org/2000/svg" xmlns:xlink="http://www.w3.org/1999/xlink" x="0px" y="0px"
	 viewBox="0 0 459.1 97" style="enable-background:new 0 0 459.1 97;" xml:space="preserve">
<style type="text/css">
	.st0{fill:#4A4A4A;}
	.st1{fill-rule:evenodd;clip-rule:evenodd;fill:#4A4A4A;}
</style>
<title>SVG IZ LOGOTIP</title>
<path class="st0" d="M70,36.8v-10l2.4,1.6l0.4-0.2l-3.3-6.6l-4.3,2.2c0,0.8,0,12.9,0,15.9c0,2.2,0,3.3-0.8,4.3v1.1
	C67.7,43.7,69.8,40.4,70,36.8"/>
<path class="st0" d="M63.7,51.6l-9.5-3.1l2.3-1.7l-0.1-0.4l-7.3,1l0.8,4.7L65.1,57c2.1,0.7,3.2,1,3.9,2.1l1,0.3
	C69.5,55.8,67,52.8,63.7,51.6"/>
<path class="st0" d="M75.9,62.1l-5.9,8l-0.9-2.7l-0.4-0.1l-1.3,7.2l4.8,0.7c0.5-0.7,7.7-10.4,9.4-12.8c1.3-1.8,2-2.7,3.2-3l0.7-0.9
	C81.9,57.9,78.2,59.3,75.9,62.1"/>
<path class="st0" d="M89.8,53.8l5.9,8.1h-2.9l-0.2,0.4l6.6,3.4l2.2-4.3l-9.4-12.8c-1.3-1.8-2-2.7-1.9-4l-0.7-0.9
	C87.6,46.9,87.8,50.8,89.8,53.8"/>
<path class="st0" d="M86.1,38.2l9.6-3.1l-0.8,2.7l0.3,0.3l5.3-5.1l-3.4-3.4c-0.8,0.2-12.4,3.9-15.3,4.9c-2.1,0.7-3.2,1-4.4,0.6
	l-1,0.3C78.9,38.1,82.7,39.2,86.1,38.2"/>
<path class="st1" d="M76.3,87.9C54.3,95.1,30.7,83,23.5,61c-1.3-4-2-8.3-2-12.5C21.7,25.4,40.7,6.8,63.8,7c4.3,0,8.5,0.7,12.5,2V8.3
	C68.3,2.9,58.7,0,49,0C21.9,0,0,21.7,0,48.5S21.9,97,49,97c9.7,0,19.3-2.9,27.4-8.3L76.3,87.9z"/>
<path class="st0" d="M134.9,39.8l2.1-0.5V24.2l-2.1-0.5v-2h9.2v2l-2,0.5v15.1l2,0.5v2h-9.2V39.8z"/>
<path class="st0" d="M146.4,41.1l-0.3-4.8h3l0.7,2.6c0.9,0.4,1.8,0.6,2.8,0.6c2,0,3.1-1,3.1-2.6s-1.2-2.3-3.3-3.2l-1.5-0.6
	c-2.8-1.1-4.6-2.5-4.6-5.9s2.2-5.9,7.3-5.9c1.8-0.1,3.7,0.2,5.4,0.8l0.3,4.4h-2.9l-0.5-2.1c-0.7-0.4-1.6-0.5-2.4-0.5
	c-1.8,0-2.8,0.8-2.8,2.3s0.9,2.1,2.9,2.9l1.4,0.5c3.3,1.2,5.3,2.4,5.3,6.1s-2.6,6.4-7.7,6.4C150.5,42.1,148.4,41.8,146.4,41.1z"/>
<path class="st0" d="M161.9,39.8l2.1-0.5V24.2l-2.1-0.5v-2h9.4v2l-2.3,0.4v15.1h5l1.1-4.3h2.8l-0.4,6.8h-15.7V39.8z"/>
<path class="st0" d="M179.6,39.8l1.6-0.5l6-17.6h4.7l5.9,17.6l1.7,0.5v2h-9.1v-2l2.1-0.5l-1-3.4h-6.1l-1,3.4l2,0.5v2h-6.7V39.8z
	 M190.8,33.8l-1-3.4c-0.6-2-1.2-5.1-1.2-5.1h-0.1c0,0-0.7,3-1.4,5.1l-1,3.4L190.8,33.8z"/>
<path class="st0" d="M201.4,39.8l2.1-0.5V24.2l-2.1-0.5v-2h8.5l2.1,7c0.6,2.5,1.2,5.1,1.5,7.7h0.1c0,0,0.8-4.8,1.7-7.7l2-7h9v2
	l-2.2,0.5v15.1l2.2,0.5v2h-8.8v-2l1.7-0.5v-8c0-2.8,0.3-7.3,0.3-7.3h-0.1c0,0-1.1,4.4-1.9,7.1l-2.9,9.9h-3.4l-3-9.8
	c-0.8-2.7-1.8-7.3-1.8-7.3h-0.1c0,0,0.3,4.6,0.3,7.3v8l1.7,0.5v2h-6.8L201.4,39.8z"/>
<path class="st0" d="M228.7,41.1l-0.3-4.8h2.9l0.7,2.6c0.9,0.4,1.8,0.6,2.8,0.6c2,0,3.1-1,3.1-2.6s-1.2-2.3-3.3-3.2l-1.5-0.6
	c-2.8-1.1-4.5-2.5-4.5-5.9s2.2-5.9,7.3-5.9c1.8-0.1,3.7,0.2,5.4,0.8l0.3,4.4h-2.9l-0.5-2.1c-0.7-0.4-1.6-0.5-2.4-0.5
	c-1.8,0-2.8,0.8-2.8,2.3s0.9,2.1,2.9,2.9l1.4,0.5c3.3,1.2,5.3,2.4,5.3,6.1s-2.6,6.4-7.6,6.4C232.9,42.1,230.8,41.8,228.7,41.1z"/>
<path class="st0" d="M244.3,39.8l2.1-0.5V24.2l-2.1-0.5v-2h9v2l-1.9,0.4v7.9l6.6-7.9l-1.9-0.4v-2h7.3v2l-1.8,0.5l-4.8,5.6l5.6,9.5
	l1.5,0.5v2H258l-4.8-8.4l-1.8,1.3v4.6l1.9,0.5v2h-9L244.3,39.8z"/>
<path class="st0" d="M265.6,39.8l1.6-0.5l6-17.6h4.7l5.9,17.6l1.7,0.5v2h-9.1v-2l2-0.5l-1-3.4h-6.1l-1,3.4l2,0.5v2h-6.7L265.6,39.8z
	 M276.8,33.8l-1-3.4c-0.6-2-1.2-5.1-1.2-5.1h-0.1c0,0-0.7,3-1.4,5.1l-1.1,3.4L276.8,33.8z"/>
<path class="st0" d="M295.4,39.3l9.8-14.9v-0.1h-5.4l-1.1,3.4h-2.8l0.3-5.9h14.8v2.5L301,39.1v0.1h6l1.1-3.8h2.8l-0.3,6.3h-15.3
	V39.3z"/>
<path class="st0" d="M312.7,39.8l1.6-0.5l6-17.6h4.7l5.9,17.6l1.7,0.5v2h-9.1v-2l2-0.5l-1-3.4h-6.1l-1,3.4l2,0.5v2h-6.7L312.7,39.8z
	 M323.8,33.8l-1-3.4c-0.6-2-1.2-5.1-1.2-5.1h-0.1c0,0-0.7,3-1.4,5.1l-1.1,3.4H323.8z"/>
<path class="st0" d="M334.3,41v-2.6c0.8,0.3,1.7,0.4,2.6,0.4c1.6,0,2.7-0.8,2.7-2.9V24.2l-2.1-0.5v-2h9.2v2l-2,0.5v12
	c0,3.8-2,5.8-6.1,5.8C337.1,42.1,335.6,41.7,334.3,41z"/>
<path class="st0" d="M348.5,39.8l2.1-0.5V24.2l-2.1-0.5v-2h16.1l0.3,5.5h-2.6l-0.9-3.1h-5.9v6.2h2.4l0.5-2.1h2.1v6.6h-2.1l-0.5-2.2
	h-2.4v6.6h6.1l1.1-3.7h2.6l-0.3,6.2h-16.5V39.8z"/>
<path class="st0" d="M367.3,39.8l2.1-0.5V24.2l-2.1-0.5v-2h9.2c6.3,0,9.8,2.9,9.8,9.7c0,7.1-3.7,10.4-9.7,10.4h-9.4L367.3,39.8z
	 M376.4,39.2c3.1,0,4.6-1.3,4.6-7.4c0-6.8-1.8-7.5-5-7.5h-1.5v14.9H376.4z"/>
<path class="st0" d="M387.9,39.8l2.1-0.5V24.2l-2.1-0.5v-2h7.3l4.5,7.7c1,1.8,1.9,3.7,2.7,5.6h0.1V24.2l-2-0.5v-2h6.9v2l-1.8,0.5
	v17.6h-4.1l-5.8-9.8c-1-1.8-1.9-3.7-2.6-5.7h-0.1v13l2,0.5v2h-7.2L387.9,39.8z"/>
<path class="st0" d="M409.5,39.8l2.1-0.5V24.2l-2.1-0.5v-2h9.2v2l-2,0.5v15.1l2,0.5v2h-9.2V39.8z"/>
<path class="st0" d="M420.1,31.9c0-7.9,5.1-10.5,10.2-10.5c2,0,4.1,0.2,6,0.9l0.2,5.4h-3l-0.9-3c-0.8-0.3-1.7-0.5-2.6-0.5
	c-3.2,0-4.6,2-4.6,7.3c0,6.2,1.4,7.9,4.8,7.9c0.9,0,1.8-0.2,2.6-0.6l0.8-3.1h2.9l-0.2,5.3c-2.1,0.8-4.4,1.2-6.7,1.1
	C424.2,42.1,420.1,39.2,420.1,31.9z"/>
<path class="st0" d="M438.8,39.8l1.6-0.5l6-17.6h4.7l5.9,17.6l1.7,0.5v2h-9.1v-2l2-0.5l-1-3.4h-6.1l-1,3.4l2,0.5v2h-6.7V39.8z
	 M449.9,33.8l-1-3.4c-0.6-2-1.2-5.1-1.2-5.1h-0.1c0,0-0.7,3-1.4,5.1l-1.1,3.4H449.9z"/>
<path class="st0" d="M137,69V57.2l-2.3-0.5v-1.5h8.6v1.5l-2.3,0.5v11.4c0,3.2,1.4,4.8,4.5,4.8s4.5-1.6,4.5-4.8V57.2l-2.3-0.5v-1.5
	h6.7v1.5l-2,0.5v11.6c0,4.1-2.5,6.9-7.6,6.9C139.4,75.6,137,73,137,69z"/>
<path class="st0" d="M161.6,73.7l2.4-0.5v-16l-2.3-0.5v-1.5h8.9c4.7,0,7.1,1.6,7.1,5c0,2.1-1.1,4-4.6,4.6v0.2c4.1,0.5,5.6,2.1,5.6,5
	c0,3.1-2.4,5.4-7.4,5.4h-9.6L161.6,73.7z M170.1,64.1c2,0,3.4-0.8,3.4-3.3c0-2.9-1.2-3.7-3.5-3.7h-2.1v6.9H170.1z M170.4,73.3
	c2.6,0,3.9-1.1,3.9-3.8s-1.3-3.8-3.8-3.8h-2.6v7.5H170.4z"/>
<path class="st0" d="M179.9,65.3c0-7.2,4.7-10.4,9.4-10.4c5.2,0,9.2,3.5,9.2,10.3c0,7.2-4.7,10.5-9.4,10.5
	C183.9,75.6,179.9,72.1,179.9,65.3z M194.3,65.4c0-5.9-1.7-8.5-5.1-8.5s-5.1,3-5.1,8c0,5.6,1.4,8.5,5.1,8.5
	C192.6,73.5,194.3,70.5,194.3,65.4L194.3,65.4z"/>
<path class="st0" d="M200.4,74.6l-0.3-4.8h2.2l0.8,3c1,0.5,2.1,0.8,3.3,0.8c2.3,0,3.5-1.4,3.5-3.1c0-2-1.3-2.7-3.4-3.6l-2-0.8
	c-2.5-1-4.1-2.5-4.1-5.5c0-3.2,2-5.6,6.8-5.6c1.7,0,3.5,0.2,5.1,0.8l0.2,4.4h-2.2l-0.6-2.5c-0.9-0.5-1.8-0.7-2.8-0.6
	c-1.8,0-3.2,0.9-3.2,2.7s0.9,2.5,2.9,3.3l2,0.8c2.9,1.1,4.9,2.3,4.9,5.7s-2.2,6.3-7.3,6.3C204.2,75.6,202.2,75.3,200.4,74.6z"/>
<path class="st0" d="M214.4,73.7l2.4-0.6v-16l-2.4-0.5v-1.5h6.8l5.8,9.4c1,1.8,2,3.6,2.8,5.5h0.1V57.3l-2.3-0.6v-1.5h6.8v1.5
	l-2.1,0.5v18h-3.1L222,63.3c-1-1.8-1.9-3.6-2.7-5.5h-0.1v15.4l2.4,0.6v1.5h-7.1L214.4,73.7z"/>
<path class="st0" d="M235.7,73.7l2.2-0.5v-16l-2.2-0.5v-1.5h8.5v1.5l-2.2,0.5v16l2.2,0.5v1.5h-8.5V73.7z"/>
<path class="st0" d="M251.6,73.7l2.3-0.5v-16l-2.3-0.5v-1.5h8.5v1.5l-2.2,0.5v16l2.2,0.5v1.5h-8.5L251.6,73.7z"/>
<path class="st0" d="M267.7,73.7l2.3-0.5v-16l-2.3-0.5v-1.5h8.6v1.5l-2.3,0.5v6.9h7.7v-6.9l-2.2-0.5v-1.5h8.5v1.5l-2.3,0.5v16
	l2.3,0.5v1.5h-8.6v-1.5l2.2-0.5v-7.3H274v7.3l2.3,0.5v1.5h-8.6L267.7,73.7z"/>
<path class="st0" d="M289.4,73.7l2.4-0.5v-16l-2.3-0.5v-1.5H305l0.3,5.3h-2.1l-1-3.3h-6.5V64h3.1l0.7-2.5h1.7v7h-1.7l-0.7-2.6h-3.1
	v7.5h6.9l1.2-4.1h2.1l-0.3,6h-16.1V73.7z"/>
<path class="st0" d="M307.1,73.7l2.4-0.5v-16l-2.3-0.6v-1.5h9.2c5,0,7.3,2.1,7.3,5.6c0,2.8-2.1,4.2-4.1,4.9v0.1l4.4,7.4l1.5,0.5v1.5
	h-4.8l-4.9-8.7h-2.3v6.7l2,0.5v1.5h-8.4V73.7z M315.9,64.6c2.7,0,3.6-1.3,3.6-3.8s-1-3.6-3.5-3.6h-2.5v7.4H315.9z"/>
<path class="st0" d="M325.6,65.4c0-7.9,4.9-10.6,10-10.6c2,0,3.9,0.2,5.8,0.8l0.2,5.3h-2.2l-1-3.4c-1-0.4-2.1-0.6-3.1-0.6
	c-3.9,0-5.6,2.9-5.6,7.9c0,6,1.7,8.6,5.8,8.6c1.1,0,2.1-0.2,3.1-0.7l1-3.6h2.1l-0.2,5.4c-2.1,0.8-4.3,1.1-6.5,1
	C329.5,75.6,325.6,72.7,325.6,65.4z"/>
<path class="st0" d="M343.4,73.7l2.4-0.5v-16l-2.3-0.5v-1.5H359l0.3,5.3h-2.1l-1-3.3h-6.5V64h3.1l0.7-2.5h1.7v7h-1.7l-0.7-2.6h-3.1
	v7.5h6.9l1.2-4.1h2.1l-0.3,6h-16.1V73.7z"/>
<path class="st0" d="M361.1,65.4c0-7.9,5-10.6,10.4-10.6c2,0,4,0.2,5.9,0.8l0.2,5.2h-2.1l-1-3.2c-1.1-0.5-2.2-0.7-3.4-0.7
	c-3.9,0-5.8,3.1-5.8,7.9c0,5.7,1.6,8.7,5.8,8.7c0.9,0,1.8-0.1,2.7-0.4V68l-2.3-0.5V66h8.1v1.5l-1.9,0.5v6.7c-2,0.7-4.2,1-6.4,1
	C365,75.6,361.1,72.7,361.1,65.4z"/>
<path class="st0" d="M381,65.3c0-7.2,4.7-10.4,9.4-10.4c5.2,0,9.2,3.5,9.2,10.3c0,7.2-4.7,10.5-9.4,10.5
	C385.1,75.6,381,72.1,381,65.3z M395.4,65.4c0-5.9-1.7-8.5-5.1-8.5s-5.1,3-5.1,8c0,5.6,1.4,8.5,5.1,8.5
	C393.7,73.5,395.4,70.5,395.4,65.4z"/>
<path class="st0" d="M401,57.2l-1.6-0.5v-1.5h8.1v1.5l-2.3,0.5l2.4,7.6c0.9,3,1.9,7.6,1.9,7.6h0.1c0,0,1.3-4.7,2.2-7.6l2.4-7.6
	l-2.2-0.5v-1.5h6.4v1.5l-1.7,0.5l-6.1,18.1h-3.5L401,57.2z"/>
<path class="st0" d="M419.5,73.7l2.2-0.5v-16l-2.2-0.5v-1.5h8.5v1.5l-2.2,0.5v16l2.2,0.5v1.5h-8.5L419.5,73.7z"/>
<path class="st0" d="M429.4,73.7l2.4-0.6v-16l-2.4-0.5v-1.5h6.8l5.8,9.4c1,1.8,2,3.6,2.8,5.5h0.1V57.3l-2.3-0.6v-1.5h6.8v1.5
	l-2.1,0.5v18h-3.1l-7.2-11.9c-1-1.8-1.9-3.6-2.7-5.5h-0.1v15.4l2.4,0.6v1.5h-7.1L429.4,73.7z"/>
<path class="st0" d="M450.7,73.7l2.3-0.5v-16l-2.3-0.5v-1.5h8.5v1.5l-2.2,0.5v16l2.2,0.5v1.5h-8.5V73.7z"/>
</svg>
